<svg width="32" height="29" viewBox="0 0 32 29" fill="none" xmlns="http://www.w3.org/2000/svg">
<path d="M12.4445 24.4711V15.4044L2.24894 5.05776C2.09982 4.90998 1.98142 4.73415 1.90057 4.5404C1.81971 4.34665 1.778 4.13882 1.77783 3.92888V2.44443C1.77783 2.20868 1.87148 1.98259 2.03818 1.81589C2.20488 1.64919 2.43097 1.55554 2.66672 1.55554H29.3334C29.5691 1.55554 29.7952 1.64919 29.9619 1.81589C30.1286 1.98259 30.2223 2.20868 30.2223 2.44443V3.95554C30.2247 4.16982 30.1842 4.38242 30.1033 4.58086C30.0224 4.77929 29.9027 4.95957 29.7512 5.1111L19.5556 15.3333V27.3333" stroke="white" stroke-width="3" stroke-linecap="round"/>
</svg>
