<svg width="50" xmlns="http://www.w3.org/2000/svg" xmlns:xlink="http://www.w3.org/1999/xlink" viewBox="0 0 39.69 39.69"><defs><style>.cls-1,.cls-5{fill:none;}.cls-2{clip-path:url(#clip-path);}.cls-3{fill:#00bce7;}.cls-4{fill:#fff;}.cls-5{stroke:#fff;stroke-width:0.67px;}</style><clipPath id="clip-path"><rect class="cls-1" width="39.69" height="39.69"/></clipPath></defs><g class="cls-2"><path class="cls-3" d="M39.69,19.84A19.85,19.85,0,1,1,19.84,0,19.85,19.85,0,0,1,39.69,19.84"/><path class="cls-4" d="M17.84,21.53c-2.79,3.84-3.39,6.65-4.33,6.38-.74-.21-.39-.84-2.34-1.28a3.73,3.73,0,0,0-4.18,3,3.77,3.77,0,0,0,2.25,4.67,3.9,3.9,0,0,0,4.84-2.32c1-2.17,1.48-5,4.65-7.48l2.43-1.88L29.57,10.7a5.06,5.06,0,0,0,.29-5.52Zm-9,7.17c1.62-1.62,4.48-.63,4.48,1.52.11,2-2.3,3.8-4.09,2.66-1.51-.79-1.5-3.08-.39-4.18"/><path class="cls-5" d="M17.84,21.53c-2.79,3.84-3.39,6.65-4.33,6.38-.74-.21-.39-.84-2.34-1.28a3.73,3.73,0,0,0-4.18,3,3.77,3.77,0,0,0,2.25,4.67,3.9,3.9,0,0,0,4.84-2.32c1-2.17,1.48-5,4.65-7.48l2.43-1.88L29.57,10.7a5.06,5.06,0,0,0,.29-5.52Zm-9,7.17c1.62-1.62,4.48-.63,4.48,1.52.11,2-2.3,3.8-4.09,2.66C7.7,32.09,7.71,29.8,8.82,28.7Z"/><path class="cls-4" d="M22.14,21.42c2.78,3.85,3.38,6.67,4.32,6.4.74-.21.39-.84,2.34-1.28a3.73,3.73,0,0,1,4.18,3,3.77,3.77,0,0,1-2.26,4.67,3.91,3.91,0,0,1-4.84-2.34c-1-2.16-1.47-5-4.63-7.48l-2.43-1.89-8.38-11.9a5.08,5.08,0,0,1-.28-5.52Zm9,7.19C29.54,27,26.67,28,26.67,30.13c-.12,2,2.29,3.8,4.08,2.67,1.51-.79,1.51-3.08.4-4.19"/><path class="cls-5" d="M22.14,21.42c2.78,3.85,3.38,6.67,4.32,6.4.74-.21.39-.84,2.34-1.28a3.73,3.73,0,0,1,4.18,3,3.77,3.77,0,0,1-2.26,4.67,3.91,3.91,0,0,1-4.84-2.34c-1-2.16-1.47-5-4.63-7.48l-2.43-1.89-8.38-11.9a5.08,5.08,0,0,1-.28-5.52Zm9,7.19C29.54,27,26.67,28,26.67,30.13c-.12,2,2.29,3.8,4.08,2.67C32.26,32,32.26,29.72,31.15,28.61Z"/></g></svg>