<svg width="50" xmlns="http://www.w3.org/2000/svg" xmlns:xlink="http://www.w3.org/1999/xlink" viewBox="0 0 39.69 39.69">
  <defs>
    <style>
      .cls-6 {
        fill: #fff;
      }
    </style>
    <clipPath id="clip-path" />
  </defs>
  <path class="cls-6" d="M38.62,15.43a.23.23,0,0,0-.18-.23l-.24,0c-1.18-.19-2.35-.37-3.54-.45-.95-.07-1.9-.11-2.84-.15a32.22,32.22,0,0,0-5.47.19,18.38,18.38,0,0,0-3.28.68c-.54.18-1.07.38-1.61.55a5.27,5.27,0,0,1-2.58.23,12,12,0,0,1-1.56-.42,22.28,22.28,0,0,0-2.8-.77A29.06,29.06,0,0,0,9,14.53a33.54,33.54,0,0,0-4,.2l-3.14.41c-.22,0-.44.1-.65.15a.24.24,0,0,0-.2.24L1,17.38a1.35,1.35,0,0,0,0,.28.21.21,0,0,0,.13.17A1,1,0,0,1,1.4,18a1.83,1.83,0,0,1,.64,1c.09.27.15.55.23.82s.11.34.15.51c.18.81.35,1.62.54,2.42a8.73,8.73,0,0,0,.77,2.22,3.61,3.61,0,0,0,1.82,1.73,7.24,7.24,0,0,0,1.56.43,12.79,12.79,0,0,0,2.9.1,13,13,0,0,0,2.89-.51,5.15,5.15,0,0,0,1.92-1,8.75,8.75,0,0,0,2.08-2.6,17.45,17.45,0,0,0,1.23-3.12c.1-.31.19-.62.3-.92a1.15,1.15,0,0,1,1-.79,2.33,2.33,0,0,1,.46,0,1.17,1.17,0,0,1,.93.39,1.73,1.73,0,0,1,.27.43,8.83,8.83,0,0,1,.35.9,18.24,18.24,0,0,0,1.68,3.78,6.15,6.15,0,0,0,2.36,2.36,8.06,8.06,0,0,0,2.3.8,15.31,15.31,0,0,0,3.64.23,9,9,0,0,0,2.19-.33,3.57,3.57,0,0,0,1.85-1.19,5.3,5.3,0,0,0,.73-1.29,18.87,18.87,0,0,0,.89-3c.11-.5.23-1,.35-1.5.07-.26.15-.52.22-.78a1.8,1.8,0,0,1,.28-.69,1.25,1.25,0,0,1,.56-.51.3.3,0,0,0,.2-.22,2.42,2.42,0,0,0,0-.25c0-.37,0-.74,0-1.11s0-.53-.05-.79M16.53,20.5a10.73,10.73,0,0,1-1.23,3A6.3,6.3,0,0,1,14.21,25a4.53,4.53,0,0,1-2,1.08,11.83,11.83,0,0,1-4.7.27c-.31-.05-.62-.13-.92-.21A2.45,2.45,0,0,1,5.08,25a6,6,0,0,1-.82-1.95,21.23,21.23,0,0,1-.42-2.75,6.67,6.67,0,0,1,0-1.61,7,7,0,0,1,.11-.8A2.25,2.25,0,0,1,5.7,16.15a15.2,15.2,0,0,1,2.59-.42c.65-.06,1.3-.08,1.72-.11a18.82,18.82,0,0,1,4,.4,5.84,5.84,0,0,1,1.47.46,3.58,3.58,0,0,1,.64.43A1.67,1.67,0,0,1,16.67,18a6.4,6.4,0,0,1-.14,2.54m19.31-.4a11.41,11.41,0,0,1-.71,3.79,3.65,3.65,0,0,1-.83,1.32,3.32,3.32,0,0,1-1.52.79,8.35,8.35,0,0,1-2.17.24,14.93,14.93,0,0,1-3.26-.35,4.44,4.44,0,0,1-2.6-1.64A9,9,0,0,1,23,20.59a7.11,7.11,0,0,1-.25-1.89,5.69,5.69,0,0,1,.08-.83A1.81,1.81,0,0,1,24,16.49,10.93,10.93,0,0,1,26,16a17,17,0,0,1,2.24-.31l1.58-.07a19.09,19.09,0,0,1,4.3.58,4.93,4.93,0,0,1,.72.29,1.08,1.08,0,0,1,.5.49,8.11,8.11,0,0,1,.34.74,3,3,0,0,1,.15.93c0,.5,0,1,0,1.5" />
</svg>