 <svg xmlns="http://www.w3.org/2000/svg">

  <symbol viewBox="0 0 29.19 28.27" id="pin" preserveAspectRatio="xMinYMin">
    <path d="M17.76.5a1,1,0,0,1,.38.08.93.93,0,0,1,.33.21l9.93,9.73a1,1,0,0,1,.29.69,1,1,0,0,1-.3.69,4.26,4.26,0,0,1-3,1.14,6,6,0,0,1-.93-.08L18.1,19.07a11.17,11.17,0,0,1,.31,2A5.81,5.81,0,0,1,17,25.7a1,1,0,0,1-.72.28,1,1,0,0,1-.71-.29L9.85,20.13,3.42,26.34C3,26.72,1,28.09.57,27.71S1.61,25.32,2,25l6.43-6.21L2.76,13.18a.94.94,0,0,1-.29-.69,1,1,0,0,1,.3-.69,6.19,6.19,0,0,1,4.78-1.39,12.74,12.74,0,0,1,2,.32l6.34-6.11a4.56,4.56,0,0,1-.08-.9A4,4,0,0,1,17.05.78,1,1,0,0,1,17.76.5ZM18,4.64h0Z" />
  </symbol>

  </svg>
