<svg xmlns="http://www.w3.org/2000/svg" viewBox="0 0 512 512"><defs><style>.cls-1{fill:#46a8ea;stroke:#fff;stroke-miterlimit:10;}.cls-2{fill:#fff;}</style></defs><g id="Layer_1" data-name="Layer 1"><path class="cls-1" d="M256,2.6C116,2.6,2.6,116,2.6,256S116,509.4,256,509.4,509.4,396,509.4,256,396,2.6,256,2.6ZM399.7,265.5l-22.6-.2V380.9a15.41,15.41,0,0,1-15.4,15.4h-60V307.8A21.68,21.68,0,0,0,280,286.1H231.8a21.68,21.68,0,0,0-21.7,21.7v88.5h-60a15.41,15.41,0,0,1-15.4-15.4V263.7l-22.7-.2a10.2,10.2,0,0,1-7.1-17.4L247.7,103.3a10.14,10.14,0,0,1,14.4,0L407,248.1A10.2,10.2,0,0,1,399.7,265.5Z"/></g><g id="Layer_5" data-name="Layer 5"><path class="cls-2" d="M399.7,265.5l-22.6-.2V380.9a15.41,15.41,0,0,1-15.4,15.4h-60V307.8A21.68,21.68,0,0,0,280,286.1H231.8a21.68,21.68,0,0,0-21.7,21.7v88.5h-60a15.41,15.41,0,0,1-15.4-15.4V263.7l-22.7-.2a10.2,10.2,0,0,1-7.1-17.4L247.7,103.3a10.14,10.14,0,0,1,14.4,0L407,248.1A10.2,10.2,0,0,1,399.7,265.5Z"/></g></svg>