<svg width="50" xmlns="http://www.w3.org/2000/svg" viewBox="0 0 39.69 39.44">
  <defs>
    <style>
      .cls-2 {
        fill: #fff;
      }
    </style>
  </defs>
  <path class="cls-2" d="M22.53,29.17c1.82.62,3.43,1,5.74,1.73-.89,11.22-11.49,6.76-5.74-1.73M32,18.87c-.12-3.37-.71-7.79-5.44-7.1-2.21.58-3.85,3-4.62,7.21a20.41,20.41,0,0,0,.32,7.49c.46,1.37.31,1.28.79,1.54,1.9.43,3.77.9,5.68,1.38C30.67,28,32.27,20.75,32,18.87m-14.58-.26a20.19,20.19,0,0,0,.32-7.49c-.77-4.2-2.41-6.63-4.62-7.21C8.39,3.22,7.8,7.64,7.68,11,7.42,12.89,9,20.16,11,21.53c1.91-.48,3.78-1,5.68-1.38.49-.26.34-.17.79-1.54m-6,4.43c.89,11.22,11.5,6.76,5.74-1.73-1.82.62-3.43,1-5.74,1.73" />
</svg>