<svg width="50" xmlns="http://www.w3.org/2000/svg" xmlns:xlink="http://www.w3.org/1999/xlink" viewBox="0 0 39.69 39.69"><defs><style>.cls-1,.cls-4{fill:none;}.cls-2{clip-path:url(#clip-path);}.cls-3{fill:#8885bf;}.cls-4{stroke:#fff;stroke-linecap:round;stroke-linejoin:round;stroke-width:1.6px;}.cls-5{fill:#fff;}</style><clipPath id="clip-path"><rect class="cls-1" width="39.69" height="39.69"/></clipPath></defs><g class="cls-2"><path class="cls-3" d="M39.69,19.84A19.85,19.85,0,1,1,19.84,0,19.85,19.85,0,0,1,39.69,19.84"/><path class="cls-4" d="M14.81,5.07h9.38C23,6.39,23,8.27,23.06,9.92v.32c.06,2.27.14,5.58.14,5.58l8.1,12.37s0,.07.09.18.11.27.18.42c.82,1.48.5,3.77-1.31,4.4l-.36.17-.65.19-.6,0-16.23-.1H11.33c-1.58.16-3.55-.33-4-2.09a3.45,3.45,0,0,1-.1-1,4.88,4.88,0,0,1,.43-1.88c0-.11.12-.24.19-.38l.27-.55L16,15.74s0-3.68-.07-6V9.16a5.84,5.84,0,0,0-1.27-4.09Z"/><line class="cls-4" x1="20.21" y1="9.59" x2="22.71" y2="9.59"/><line class="cls-4" x1="20.14" y1="14.35" x2="22.82" y2="14.35"/><line class="cls-4" x1="21.78" y1="19.22" x2="25.28" y2="19.22"/><polyline class="cls-5" points="27.1 21.71 11.88 21.73 7.3 29.14 7.61 32.15 9.48 33.55 30.18 33.38 31.9 30.86 30.94 27.09 27.1 21.63"/></g></svg>