<svg width="50" xmlns="http://www.w3.org/2000/svg" xmlns:xlink="http://www.w3.org/1999/xlink" viewBox="0 0 39.69 39.44"><defs><style>.cls-1{fill:none;}.cls-2{clip-path:url(#clip-path);}.cls-3{fill:#ffcf4e;}.cls-4{fill:#fff;fill-rule:evenodd;}</style><clipPath id="clip-path"><rect class="cls-1" width="39.69" height="39.44"/></clipPath></defs><g class="cls-2"><path class="cls-3" d="M39.69,19.84A19.85,19.85,0,1,1,19.84,0,19.85,19.85,0,0,1,39.69,19.84"/><path class="cls-4" d="M18.87,15.11a4.57,4.57,0,0,0-.07-1.19c-.19-.4-.68-.62-1-.87a3.94,3.94,0,0,1-1.83-3.83,4.66,4.66,0,0,1,1.17-2.61A3.74,3.74,0,0,1,19.7,5.35a4.17,4.17,0,0,1,4.21,2.28,3.61,3.61,0,0,1,.45,1.7c0,.88-.93,1.72-1.76,1.2a1.4,1.4,0,0,1-.47-.67C22,9.53,22.06,9.23,22,9a1.83,1.83,0,0,0-1.76-1.29,1.92,1.92,0,0,0-1.47.58,1.82,1.82,0,0,0-.5,1.49,1.91,1.91,0,0,0,.67,1.38,4,4,0,0,0,.65.36A2.79,2.79,0,0,1,21,13.12a3.53,3.53,0,0,1,.07.94,4.35,4.35,0,0,0,0,1c.05.16.74.5.89.6C26,18.1,30,20.42,34.06,22.85c1.26.77,2.61,1.32,2.77,3.16a3.18,3.18,0,0,1-2.35,3.55,12.84,12.84,0,0,1-2.8.16H8a10.52,10.52,0,0,1-2.79-.18A3.35,3.35,0,0,1,4,24a6.18,6.18,0,0,1,.91-.58q7-4.12,14-8.27m.49,2.51c-4.43,2.63-8.7,5.11-13.14,7.72a1.69,1.69,0,0,0-.78.67,1,1,0,0,0,.64,1.28,7.61,7.61,0,0,0,1.68,0H32a7.51,7.51,0,0,0,1.69,0,1,1,0,0,0,.59-1.16,1.37,1.37,0,0,0-.7-.75c-2.13-1.25-4.37-2.54-6.4-3.75-2.38-1.41-4.86-2.87-7.32-4.29l-.51.29"/></g></svg>